<?xml version="1.0" encoding="UTF-8" standalone="no"?>
<svg width="23px" height="28px" viewBox="0 0 23 28" version="1.1" xmlns="http://www.w3.org/2000/svg" xmlns:xlink="http://www.w3.org/1999/xlink" xmlns:sketch="http://www.bohemiancoding.com/sketch/ns">
    <!-- Generator: Sketch 3.0.4 (8053) - http://www.bohemiancoding.com/sketch -->
    <title>icon-pdf</title>
    <desc>Created with Sketch.</desc>
    <defs></defs>
    <g id="Page-1" stroke="none" stroke-width="1" fill="none" fill-rule="evenodd" sketch:type="MSPage">
        <g id="icon-pdf" sketch:type="MSLayerGroup">
            <path d="M23,28 L0,28 L0,0 L15,0 L17.6716614,2.67166138 L23,8 L23,28 Z" id="Paper" fill="#D62020" sketch:type="MSShapeGroup"></path>
            <polygon id="Edge" fill="#9F241F" sketch:type="MSShapeGroup" points="15.012858 0.00384521484 23.0132443 8.0022583 15.012858 8.0022583 "></polygon>
            <path d="M8.11046713,17.9692718 C8.68444808,16.8220777 9.33714332,15.5293398 9.85919094,14.2316214 L10.0658386,13.7195437 C9.38364808,11.0730097 8.97451475,8.9488835 9.34003856,7.57516505 C9.43847665,7.2171165 9.8452576,7 10.2802671,7 L10.5451814,7.00387379 L10.5938576,7.00387379 C11.1893719,6.99446602 11.470029,7.76682524 11.5015147,8.06695146 C11.5541719,8.56703883 11.3272576,9.41336893 11.3272576,9.41336893 C11.3272576,9.0715534 11.3404671,8.5194466 11.1289338,8.04297087 C10.8824767,7.49160194 10.6474195,7.16214563 10.436429,7.10994175 C10.330029,7.18243689 10.2265243,7.3327767 10.1908767,7.62146602 C10.1175909,8.02636893 10.0955147,8.53770874 10.0955147,8.80112621 C10.0955147,9.73212621 10.2753814,10.9610388 10.6287814,12.227767 C10.6953719,12.0316796 10.7541814,11.8431553 10.8006862,11.6666214 C10.8732481,11.3882621 11.3337719,9.54378641 11.3337719,9.54378641 C11.3337719,9.54378641 11.2177814,11.9992136 11.0556481,12.7420583 C11.0207243,12.8990388 10.9825433,13.0543592 10.9427338,13.2133689 C11.5252195,14.8731942 12.4643624,16.3546408 13.5844576,17.4208544 C14.0261624,17.8416214 14.5838576,18.1808544 15.1118767,18.4902039 C16.2647243,18.3221553 17.3261909,18.242835 18.2115909,18.2529806 C19.3866957,18.2686602 20.2489338,18.445932 20.5981719,18.7964175 C20.7691719,18.9670485 20.8386576,19.1727282 20.8601909,19.4034951 C20.8652576,19.4933301 20.8223719,19.7043592 20.8097052,19.7571165 C20.8223719,19.6931068 20.8223719,19.3778544 19.8792481,19.0710874 C19.1364386,18.829068 17.7463624,18.8366311 16.0781624,19.0175922 C18.0074767,19.979767 19.88721,20.4579029 20.4829052,20.1712427 C20.6287528,20.098932 20.8051814,19.852301 20.8051814,19.852301 C20.8051814,19.852301 20.700229,20.3385534 20.6249528,20.4601165 C20.5286862,20.5921942 20.3399528,20.7353398 20.1609909,20.7834854 C19.2202195,21.0393398 16.77121,20.4473883 14.6365147,19.2039029 C12.2512005,19.561767 9.63173379,20.2232621 7.53214332,20.9255243 C5.46874332,24.6117087 3.91743856,26.3047379 2.65547665,25.660767 L2.19151475,25.4229903 C2.00296237,25.3130485 1.97419094,25.0453883 2.01780046,24.827165 C2.16491475,24.0935437 3.06750522,22.9882233 4.88064808,21.8843786 C5.0758957,21.7641068 5.94500998,21.2955631 5.94500998,21.2955631 C5.94500998,21.2955631 5.30154332,21.9303107 5.15080998,22.0551942 C3.70355284,23.2641845 2.63539094,24.7851068 2.66217189,25.3746602 L2.66741951,25.4259417 C3.89662903,25.2475631 5.74017189,22.696767 8.11046713,17.9692718 M8.86141951,18.3614466 C8.46567665,19.1212621 8.07880046,19.8259223 7.72141951,20.4730291 C9.69760046,19.6290971 11.8243338,19.0889806 13.84901,18.7052913 C13.5768576,18.5136311 13.3126671,18.3109029 13.0642195,18.0965534 C11.9493719,17.1341942 11.0992576,15.9336893 10.4831147,14.670466 C10.0922576,15.7435049 9.62793379,16.8840583 8.86141951,18.3614466" id="Imported-Layers" fill="#FFFFFF" sketch:type="MSShapeGroup"></path>
        </g>
    </g>
</svg>