<?xml version="1.0" encoding="UTF-8" standalone="no"?>
<svg width="23px" height="28px" viewBox="0 0 23 28" version="1.1" xmlns="http://www.w3.org/2000/svg" xmlns:xlink="http://www.w3.org/1999/xlink" xmlns:sketch="http://www.bohemiancoding.com/sketch/ns">
    <!-- Generator: Sketch 3.0.4 (8053) - http://www.bohemiancoding.com/sketch -->
    <title>icon-excel</title>
    <desc>Created with Sketch.</desc>
    <defs></defs>
    <g id="Page-1" stroke="none" stroke-width="1" fill="none" fill-rule="evenodd" sketch:type="MSPage">
        <g id="icon-excel" sketch:type="MSLayerGroup">
            <path d="M23,28 L0,28 L0,0 L15,0 L17.6716614,2.67166138 L23,8 L23,28 Z" id="Paper" fill="#64A700" sketch:type="MSShapeGroup"></path>
            <polygon id="Edge" fill="#477700" sketch:type="MSShapeGroup" points="15.012858 0.00384521484 23.0132443 8.0022583 15.012858 8.0022583 "></polygon>
            <g id="Visual" transform="translate(3.000000, 12.000000)" fill-opacity="0.6" fill="#FFFFFF" sketch:type="MSShapeGroup">
                <path d="M0,0 L0,2 L5,2 L5,0 L0,0 Z M6,0 L6,2 L11,2 L11,0 L6,0 Z M12,0 L12,2 L17,2 L17,0 L12,0 Z M0,3 L0,5 L5,5 L5,3 L0,3 Z M6,3 L6,5 L11,5 L11,3 L6,3 Z M12,3 L12,5 L17,5 L17,3 L12,3 Z M0,6 L0,8 L5,8 L5,6 L0,6 Z M6,6 L6,8 L11,8 L11,6 L6,6 Z M12,6 L12,8 L17,8 L17,6 L12,6 Z M0,9 L0,11 L5,11 L5,9 L0,9 Z M6,9 L6,11 L11,11 L11,9 L6,9 Z M12,9 L12,11 L17,11 L17,9 L12,9 Z" id="Rectangle-3"></path>
            </g>
        </g>
    </g>
</svg>