<?xml version="1.0" encoding="UTF-8" standalone="no"?>
<svg width="220px" height="45px" viewBox="0 0 220 45" version="1.1" xmlns="http://www.w3.org/2000/svg" xmlns:xlink="http://www.w3.org/1999/xlink" xmlns:sketch="http://www.bohemiancoding.com/sketch/ns">
    <!-- Generator: Sketch 3.0.4 (8053) - http://www.bohemiancoding.com/sketch -->
    <title>Group</title>
    <desc>Created with Sketch.</desc>
    <defs></defs>
    <g id="Page-1" stroke="none" stroke-width="1" fill="none" fill-rule="evenodd" sketch:type="MSPage">
        <g id="Group" sketch:type="MSLayerGroup">
            <path d="M130.329114,27.65625 C130.329114,26.0625 129.400844,23.8125 126.616034,23.8125 L125.409283,23.8125 L125.409283,31.6875 L126.523207,31.6875 C129.493671,31.6875 130.329114,29.625 130.329114,27.65625 L130.329114,27.65625 Z" id="Shape" sketch:type="MSShapeGroup"></path>
            <path d="M148.244726,25.5 C148.244726,24.84375 147.873418,23.8125 146.57384,23.8125 L145.831224,23.8125 L145.831224,27.375 L146.481013,27.375 C147.316456,27.375 148.244726,26.90625 148.244726,25.5 L148.244726,25.5 Z" id="Shape" sketch:type="MSShapeGroup"></path>
            <path d="M64.6075949,11.8125 C64.6075949,11.8125 63.6793249,14.0625 63.3080169,15.09375 L66,15.09375 C65.350211,13.6875 64.6075949,11.8125 64.6075949,11.8125 L64.6075949,11.8125 Z" id="Shape" sketch:type="MSShapeGroup"></path>
            <path d="M98.1181435,15.1875 L100.810127,15.1875 C100.160338,13.6875 99.4177215,11.90625 99.4177215,11.90625 C99.4177215,11.90625 98.4894515,14.15625 98.1181435,15.1875 L98.1181435,15.1875 Z" id="Shape" sketch:type="MSShapeGroup"></path>
            <path d="M87.164557,25.78125 C87.164557,25.78125 86.2362869,28.125 85.7721519,29.15625 L88.464135,29.15625 C87.814346,27.5625 87.164557,25.78125 87.164557,25.78125 L87.164557,25.78125 Z" id="Shape" sketch:type="MSShapeGroup"></path>
            <path d="M66.278481,27.5625 C66.278481,30.46875 67.8565401,31.78125 69.4345992,31.78125 C71.1983122,31.78125 72.4978903,30.375 72.4978903,27.9375 C72.4978903,25.3125 71.1983122,23.71875 69.4345992,23.71875 C67.5780591,23.71875 66.278481,25.125 66.278481,27.5625 L66.278481,27.5625 Z" id="Shape" sketch:type="MSShapeGroup"></path>
            <path d="M187.603376,27.84375 C187.603376,25.21875 186.303797,23.625 184.540084,23.625 C182.776371,23.625 181.383966,25.03125 181.383966,27.46875 C181.383966,30.375 182.962025,31.6875 184.540084,31.6875 C186.303797,31.6875 187.603376,30.28125 187.603376,27.84375 L187.603376,27.84375 Z" id="Shape" sketch:type="MSShapeGroup"></path>
            <path d="M103.687764,29.0625 L106.379747,29.0625 C105.729958,27.5625 104.987342,25.6875 104.987342,25.6875 C104.987342,25.6875 104.059072,28.125 103.687764,29.0625 L103.687764,29.0625 Z" id="Shape" sketch:type="MSShapeGroup"></path>
            <path d="M91.1561181,11.53125 C91.1561181,10.875 90.7848101,9.84375 89.4852321,9.84375 L88.742616,9.84375 L88.742616,13.40625 L89.2995781,13.40625 C90.1350211,13.40625 91.1561181,12.9375 91.1561181,11.53125 L91.1561181,11.53125 Z" id="Shape" sketch:type="MSShapeGroup"></path>
            <path d="M22.92827,0 L0,0 L11.1392405,19.3125 C11.0464135,18.46875 10.9535865,17.53125 10.9535865,16.59375 C10.9535865,8.8125 15.9662447,2.25 22.92827,0 L22.92827,0 Z" id="Shape" fill="#FFFFFF" sketch:type="MSShapeGroup"></path>
            <path d="M34.8101266,29.71875 C32.3037975,31.59375 29.2405063,32.625 25.9915612,32.625 C22.742616,32.625 19.5864979,31.5 17.1729958,29.71875 L25.9915612,45 L34.8101266,29.71875 L34.8101266,29.71875 Z" id="Shape" fill="#FFFFFF" sketch:type="MSShapeGroup"></path>
            <path d="M17.0801688,13.40625 C17.0801688,15.375 17.4514768,17.15625 18.1940928,18.84375 C18.2869198,19.03125 18.3797468,19.3125 18.5654008,19.5 C19.9578059,22.03125 22.556962,23.8125 25.6202532,23.90625 L25.6202532,23.90625 L25.9915612,23.90625 L26.2700422,23.90625 C29.6118143,23.71875 32.2109705,21 32.2109705,17.53125 C32.2109705,14.0625 29.4261603,11.15625 25.8987342,11.15625 C25.9915612,11.0625 26.0843882,10.96875 26.2700422,10.875 C27.8481013,9.5625 29.7974684,8.71875 32.0253165,8.71875 C36.9451477,8.71875 40.9367089,12.75 40.9367089,17.71875 C40.9367089,18.1875 40.9367089,18.75 40.8438819,19.21875 L51.9831224,0 L31.4683544,0 C19.8649789,0 17.0801688,9.1875 17.0801688,13.40625 L17.0801688,13.40625 Z" id="Shape" fill="#FFFFFF" sketch:type="MSShapeGroup"></path>
            <path d="M55.1392405,9.1875 L52.1687764,9.1875 C52.5400844,9.375 52.7257384,9.5625 52.9113924,9.84375 C53.1898734,10.3125 56.6244726,18.65625 56.6244726,18.65625 C56.6244726,18.65625 59.8734177,10.40625 60.0590717,9.84375 C60.1518987,9.5625 60.2447257,9.46875 60.5232068,9.1875 L58.8523207,9.1875 C59.2236287,9.28125 59.2236287,9.46875 59.1308017,9.84375 C59.1308017,9.9375 56.9957806,15.5625 56.9957806,15.5625 C56.9957806,15.5625 54.7679325,10.03125 54.7679325,9.9375 C54.7679325,9.65625 54.7679325,9.375 55.1392405,9.1875 L55.1392405,9.1875 Z" id="Shape" fill="#FFFFFF" sketch:type="MSShapeGroup"></path>
            <path d="M73.2405063,17.8125 C71.8481013,17.8125 71.0126582,16.5 70.8270042,15.5625 L70.9198312,17.8125 C71.3839662,18 72.3122363,18.46875 73.5189873,18.46875 C75.1898734,18.46875 76.5822785,17.34375 76.5822785,15.65625 C76.5822785,13.78125 75.2827004,13.3125 74.0759494,12.75 C72.7763713,12.1875 72.2194093,11.90625 72.2194093,11.0625 C72.2194093,10.5 72.5907173,9.75 73.6118143,9.75 C74.9113924,9.75 75.6540084,10.875 75.8396624,11.53125 L75.7468354,9.5625 C75.0970464,9.1875 74.1687764,9.09375 73.7046414,9.09375 C72.4978903,9.09375 70.8270042,9.84375 70.8270042,11.625 C70.8270042,12.65625 71.3839662,13.40625 72.5907173,14.0625 C73.7974684,14.71875 75.0042194,14.90625 75.0042194,16.21875 C74.9113924,16.875 74.5400844,17.8125 73.2405063,17.8125 L73.2405063,17.8125 Z" id="Shape" fill="#FFFFFF" sketch:type="MSShapeGroup"></path>
            <path d="M77.6033755,10.5 C77.6962025,10.3125 77.9746835,9.9375 78.2531646,9.9375 C78.2531646,9.9375 79.3670886,9.84375 80.3881857,9.84375 L80.3881857,17.8125 C80.3881857,18.09375 80.2953586,18.28125 80.0168776,18.375 L82.4303797,18.375 C82.2447257,18.28125 82.0590717,18.09375 82.0590717,17.8125 L82.0590717,9.9375 C82.9873418,9.9375 84.2869198,10.03125 84.2869198,10.03125 C84.5654008,10.03125 84.7510549,10.3125 84.9367089,10.59375 L84.9367089,9.1875 L77.6033755,9.1875 L77.6033755,10.5 L77.6033755,10.5 Z" id="Shape" fill="#FFFFFF" sketch:type="MSShapeGroup"></path>
            <path d="M86.6075949,18.375 L89.021097,18.375 C88.835443,18.28125 88.649789,18.09375 88.649789,17.8125 L88.649789,14.0625 L89.2067511,14.0625 C89.7637131,14.0625 90.0421941,14.625 90.4135021,15.1875 C90.8776371,15.9375 91.4345992,16.96875 92.0843882,17.8125 C92.3628692,18.09375 92.7341772,18.46875 93.2911392,18.46875 L95.0548523,18.46875 C95.0548523,18.46875 94.4978903,18.28125 94.2194093,17.90625 C93.7552743,17.34375 92.1772152,14.8125 92.1772152,14.8125 C91.9915612,14.53125 91.6202532,13.875 90.6919831,13.78125 C91.6202532,13.6875 92.9198312,13.03125 92.9198312,11.53125 C92.9198312,10.59375 92.2700422,9.28125 89.4852321,9.28125 L86.6075949,9.28125 C86.7932489,9.375 86.978903,9.5625 86.978903,9.84375 L86.978903,17.8125 C86.978903,18.09375 86.7932489,18.28125 86.6075949,18.375 L86.6075949,18.375 Z M88.649789,9.9375 L89.3924051,9.9375 C90.6919831,9.9375 91.0632911,10.96875 91.0632911,11.625 C91.0632911,13.03125 90.1350211,13.5 89.2067511,13.5 L88.649789,13.5 L88.649789,9.9375 L88.649789,9.9375 Z" id="Shape" fill="#FFFFFF" sketch:type="MSShapeGroup"></path>
            <path d="M103.780591,17.71875 C103.50211,17.25 99.9746835,8.90625 99.9746835,8.90625 C99.9746835,8.90625 96.4472574,17.15625 96.1687764,17.71875 C96.0759494,18 95.8902954,18.09375 95.5189873,18.375 L97.3755274,18.375 C97.0042194,18.1875 96.9113924,18 97.0970464,17.71875 C97.0970464,17.53125 97.4683544,16.78125 97.8396624,15.84375 L101.088608,15.84375 C101.459916,16.78125 101.831224,17.625 101.831224,17.71875 C101.924051,18 101.831224,18.1875 101.552743,18.375 L104.43038,18.375 C103.966245,18.1875 103.873418,18 103.780591,17.71875 L103.780591,17.71875 Z M98.1181435,15.1875 C98.5822785,14.15625 99.4177215,11.90625 99.4177215,11.90625 C99.4177215,11.90625 100.160338,13.6875 100.810127,15.1875 L98.1181435,15.1875 L98.1181435,15.1875 Z" id="Shape" fill="#FFFFFF" sketch:type="MSShapeGroup"></path>
            <path d="M67.2067511,7.6875 C67.2067511,7.3125 66.92827,7.03125 66.556962,7.03125 C66.185654,7.03125 65.907173,7.3125 65.907173,7.6875 C65.907173,8.0625 66.185654,8.34375 66.556962,8.34375 C66.92827,8.34375 67.2067511,8.0625 67.2067511,7.6875 L67.2067511,7.6875 Z" id="Shape" fill="#FFFFFF" sketch:type="MSShapeGroup"></path>
            <path d="M60.7088608,18.375 L62.5654008,18.375 C62.1940928,18.1875 62.1012658,18 62.2869198,17.71875 C62.2869198,17.53125 62.6582278,16.78125 63.0295359,15.84375 L66.278481,15.84375 C66.649789,16.78125 67.021097,17.625 67.021097,17.71875 C67.1139241,18 67.021097,18.1875 66.742616,18.375 L69.6202532,18.375 C69.1561181,18.1875 69.0632911,18 68.9704641,17.71875 C68.6919831,17.25 65.164557,8.90625 65.164557,8.90625 C65.164557,8.90625 61.6371308,17.15625 61.3586498,17.71875 C61.2658228,18 61.0801688,18.09375 60.7088608,18.375 L60.7088608,18.375 Z M64.6075949,11.8125 C64.6075949,11.8125 65.350211,13.59375 66,15.09375 L63.3080169,15.09375 C63.6793249,14.15625 64.6075949,11.8125 64.6075949,11.8125 L64.6075949,11.8125 Z" id="Shape" fill="#FFFFFF" sketch:type="MSShapeGroup"></path>
            <path d="M64.2362869,7.6875 C64.2362869,7.3125 63.9578059,7.03125 63.5864979,7.03125 C63.2151899,7.03125 62.9367089,7.3125 62.9367089,7.6875 C62.9367089,8.0625 63.2151899,8.34375 63.5864979,8.34375 C63.9578059,8.34375 64.2362869,8.0625 64.2362869,7.6875 L64.2362869,7.6875 Z" id="Shape" fill="#FFFFFF" sketch:type="MSShapeGroup"></path>
            <path d="M52.9113924,27.75 C52.9113924,30.65625 55.3248945,32.4375 57.9240506,32.4375 C59.0379747,32.4375 60.8945148,32.0625 62.0084388,31.40625 C61.9156118,31.40625 61.8227848,31.125 61.8227848,30.84375 L61.8227848,28.875 C61.8227848,28.59375 62.0084388,28.40625 62.1940928,28.21875 L59.7805907,28.21875 C59.9662447,28.3125 60.1518987,28.5 60.1518987,28.875 L60.1518987,31.21875 C59.5021097,31.59375 58.7594937,31.6875 58.4810127,31.6875 C55.6962025,31.6875 54.7679325,29.34375 54.7679325,27.5625 C54.7679325,25.40625 56.0675105,23.71875 58.3881857,23.71875 C59.0379747,23.71875 60.7088608,24 61.4514768,25.875 L61.3586498,23.71875 C60.3375527,23.25 59.3164557,22.96875 58.2025316,22.96875 C54.6751055,22.96875 52.9113924,25.40625 52.9113924,27.75 L52.9113924,27.75 Z" id="Shape" fill="#FFFFFF" sketch:type="MSShapeGroup"></path>
            <path d="M75.4683544,24.46875 C75.5611814,24.28125 75.8396624,23.90625 76.1181435,23.90625 C76.1181435,23.90625 77.2320675,23.8125 78.2531646,23.8125 L78.2531646,31.78125 C78.2531646,32.0625 78.1603376,32.25 77.8818565,32.4375 L80.2953586,32.4375 C80.1097046,32.34375 79.9240506,32.15625 79.9240506,31.78125 L79.9240506,23.8125 C80.9451477,23.8125 82.1518987,23.90625 82.1518987,23.90625 C82.4303797,23.90625 82.7088608,24.1875 82.8016878,24.46875 L82.8016878,23.15625 L75.3755274,23.15625 L75.3755274,24.46875 L75.4683544,24.46875 Z" id="Shape" fill="#FFFFFF" sketch:type="MSShapeGroup"></path>
            <path d="M83.1729958,32.34375 L85.0295359,32.34375 C84.6582278,32.15625 84.5654008,31.96875 84.7510549,31.6875 C84.7510549,31.5 85.1223629,30.75 85.4936709,29.8125 L88.835443,29.8125 C89.2067511,30.75 89.5780591,31.59375 89.5780591,31.6875 C89.6708861,31.96875 89.5780591,32.15625 89.2995781,32.34375 L92.1772152,32.34375 C91.7130802,32.15625 91.6202532,31.96875 91.5274262,31.6875 C91.2489451,31.125 87.721519,22.78125 87.721519,22.78125 C87.721519,22.78125 84.1940928,31.125 83.9156118,31.6875 C83.7299578,31.96875 83.5443038,32.15625 83.1729958,32.34375 L83.1729958,32.34375 Z M87.164557,25.78125 C87.164557,25.78125 87.907173,27.5625 88.556962,29.15625 L85.8649789,29.15625 C86.2362869,28.125 87.164557,25.78125 87.164557,25.78125 L87.164557,25.78125 Z" id="Shape" fill="#FFFFFF" sketch:type="MSShapeGroup"></path>
            <path d="M94.4050633,23.71875 L94.4050633,31.78125 C94.4050633,32.0625 94.2194093,32.25 94.0337553,32.4375 L99.6962025,32.4375 L99.9746835,30.84375 C99.5105485,31.59375 99.0464135,31.6875 97.5611814,31.6875 C96.9113924,31.6875 96.3544304,31.59375 96.0759494,31.59375 L96.0759494,23.71875 C96.0759494,23.4375 96.1687764,23.25 96.4472574,23.0625 L94.0337553,23.0625 C94.3122363,23.25 94.4050633,23.4375 94.4050633,23.71875 L94.4050633,23.71875 Z" id="Shape" fill="#FFFFFF" sketch:type="MSShapeGroup"></path>
            <path d="M107.122363,32.34375 L110,32.34375 C109.535865,32.15625 109.443038,31.96875 109.350211,31.6875 C109.07173,31.125 105.544304,22.78125 105.544304,22.78125 C105.544304,22.78125 102.016878,31.125 101.738397,31.6875 C101.64557,31.96875 101.459916,32.0625 101.088608,32.34375 L102.945148,32.34375 C102.57384,32.15625 102.481013,31.96875 102.666667,31.6875 C102.666667,31.5 103.037975,30.75 103.409283,29.8125 L106.751055,29.8125 C107.122363,30.75 107.493671,31.59375 107.493671,31.6875 C107.586498,31.96875 107.493671,32.15625 107.122363,32.34375 L107.122363,32.34375 Z M103.687764,29.0625 C104.151899,28.03125 105.080169,25.6875 105.080169,25.6875 C105.080169,25.6875 105.822785,27.46875 106.472574,29.0625 L103.687764,29.0625 L103.687764,29.0625 Z" id="Shape" fill="#FFFFFF" sketch:type="MSShapeGroup"></path>
            <path d="M113.71308,23.15625 L111.392405,23.15625 C111.670886,23.34375 111.85654,23.53125 112.042194,23.71875 C112.320675,24 112.320675,24 112.320675,24.5625 L112.320675,31.78125 C112.320675,32.0625 112.135021,32.25 111.949367,32.4375 L113.434599,32.4375 C113.248945,32.34375 113.063291,32.15625 113.063291,31.78125 L113.063291,24.9375 C113.063291,25.03125 119.561181,32.71875 119.561181,32.71875 L119.561181,23.71875 C119.561181,23.4375 119.746835,23.25 119.932489,23.0625 L118.447257,23.0625 C118.632911,23.15625 118.818565,23.34375 118.818565,23.71875 L118.818565,29.0625 L113.71308,23.15625 L113.71308,23.15625 Z" id="Shape" fill="#FFFFFF" sketch:type="MSShapeGroup"></path>
            <path d="M123.274262,32.34375 L126.708861,32.34375 C130.329114,32.34375 132.185654,29.90625 132.185654,27.5625 C132.185654,26.25 131.257384,23.0625 126.894515,23.0625 L123.274262,23.0625 C123.459916,23.15625 123.64557,23.34375 123.64557,23.71875 L123.64557,31.78125 C123.64557,32.0625 123.459916,32.25 123.274262,32.34375 L123.274262,32.34375 Z M125.316456,23.8125 L126.523207,23.8125 C129.308017,23.8125 130.236287,25.96875 130.236287,27.65625 C130.236287,29.625 129.400844,31.6875 126.337553,31.6875 L125.316456,31.6875 L125.316456,23.8125 L125.316456,23.8125 Z" id="Shape" fill="#FFFFFF" sketch:type="MSShapeGroup"></path>
            <path d="M137.383966,31.78125 C135.991561,31.78125 135.156118,30.46875 134.877637,29.53125 L134.970464,31.875 C135.434599,32.0625 136.362869,32.53125 137.56962,32.53125 C139.240506,32.53125 140.725738,31.40625 140.725738,29.71875 C140.725738,27.84375 139.42616,27.375 138.126582,26.8125 C136.827004,26.25 136.270042,25.875 136.270042,25.125 C136.270042,24.5625 136.64135,23.8125 137.662447,23.8125 C138.962025,23.8125 139.704641,24.9375 139.890295,25.59375 L139.797468,23.625 C139.147679,23.25 138.219409,23.15625 137.755274,23.15625 C136.548523,23.15625 134.78481,23.90625 134.78481,25.78125 C134.78481,26.8125 135.341772,27.5625 136.548523,28.21875 C137.755274,28.875 138.962025,29.0625 138.962025,30.375 C139.054852,30.84375 138.683544,31.78125 137.383966,31.78125 L137.383966,31.78125 Z" id="Shape" fill="#FFFFFF" sketch:type="MSShapeGroup"></path>
            <path d="M143.696203,32.34375 L146.109705,32.34375 C145.924051,32.25 145.738397,32.0625 145.738397,31.6875 L145.738397,27.9375 L146.295359,27.9375 C146.852321,27.9375 147.223629,28.5 147.50211,29.0625 C147.966245,29.8125 148.616034,30.84375 149.172996,31.6875 C149.451477,31.96875 149.822785,32.34375 150.379747,32.34375 L152.14346,32.34375 C152.14346,32.34375 151.493671,32.15625 151.308017,31.78125 C150.843882,31.21875 149.265823,28.6875 149.265823,28.6875 C149.080169,28.40625 148.616034,27.75 147.780591,27.65625 C148.708861,27.5625 150.101266,26.8125 150.101266,25.40625 C150.101266,24.46875 149.451477,23.15625 146.666667,23.15625 L143.78903,23.15625 C143.974684,23.25 144.160338,23.4375 144.160338,23.8125 L144.160338,31.875 C144.067511,32.0625 143.974684,32.25 143.696203,32.34375 L143.696203,32.34375 Z M145.738397,23.8125 L146.481013,23.8125 C147.780591,23.8125 148.151899,24.9375 148.151899,25.5 C148.151899,26.90625 147.223629,27.375 146.295359,27.375 L145.64557,27.375 L145.64557,23.8125 L145.738397,23.8125 Z" id="Shape" fill="#FFFFFF" sketch:type="MSShapeGroup"></path>
            <path d="M154,32.34375 L159.755274,32.34375 L160.033755,30.75 C159.56962,31.59375 159.012658,31.59375 157.805907,31.59375 C157.156118,31.59375 156.320675,31.59375 156.042194,31.5 L156.042194,27.46875 L158.084388,27.46875 C158.270042,27.46875 158.548523,27.65625 158.548523,27.84375 L158.548523,26.4375 C158.455696,26.625 158.270042,26.8125 158.084388,26.8125 L156.042194,26.8125 L156.042194,23.71875 L158.362869,23.71875 C158.919831,23.71875 159.198312,23.8125 159.383966,24.1875 L159.383966,22.96875 L154,22.96875 C154.185654,23.0625 154.371308,23.25 154.371308,23.625 L154.371308,31.6875 C154.371308,32.0625 154.185654,32.25 154,32.34375 L154,32.34375 Z" id="Shape" fill="#FFFFFF" sketch:type="MSShapeGroup"></path>
            <path d="M167.274262,23.71875 C167.924051,23.71875 169.594937,24 170.337553,25.875 L170.244726,23.71875 C169.223629,23.25 168.202532,22.96875 167.088608,22.96875 C163.654008,22.96875 161.890295,25.40625 161.890295,27.75 C161.890295,30.65625 164.303797,32.4375 166.902954,32.4375 C168.016878,32.4375 169.873418,32.0625 170.987342,31.40625 C170.894515,31.40625 170.801688,31.125 170.801688,30.84375 L170.801688,28.875 C170.801688,28.59375 170.987342,28.40625 171.172996,28.21875 L168.759494,28.21875 C168.945148,28.3125 169.130802,28.5 169.130802,28.875 L169.130802,31.21875 C168.481013,31.59375 167.738397,31.6875 167.459916,31.6875 C164.675105,31.6875 163.746835,29.34375 163.746835,27.5625 C163.746835,25.40625 165.046414,23.71875 167.274262,23.71875 L167.274262,23.71875 Z" id="Shape" fill="#FFFFFF" sketch:type="MSShapeGroup"></path>
            <path d="M174.236287,32.34375 L176.649789,32.34375 C176.464135,32.25 176.278481,32.0625 176.278481,31.6875 L176.278481,23.625 C176.278481,23.34375 176.371308,23.15625 176.649789,22.96875 L174.236287,22.96875 C174.421941,23.0625 174.607595,23.25 174.607595,23.625 L174.607595,31.6875 C174.607595,32.0625 174.421941,32.25 174.236287,32.34375 L174.236287,32.34375 Z" id="Shape" fill="#FFFFFF" sketch:type="MSShapeGroup"></path>
            <path d="M189.459916,27.75 C189.459916,24.65625 186.860759,22.96875 184.540084,22.96875 C181.291139,22.96875 179.434599,25.3125 179.434599,27.65625 C179.341772,30.46875 181.662447,32.4375 184.35443,32.53125 C186.860759,32.53125 189.459916,30.9375 189.459916,27.75 L189.459916,27.75 Z M181.383966,27.5625 C181.383966,25.125 182.776371,23.71875 184.540084,23.71875 C186.303797,23.71875 187.696203,25.3125 187.603376,27.9375 C187.603376,30.375 186.303797,31.78125 184.540084,31.78125 C182.962025,31.6875 181.383966,30.375 181.383966,27.5625 L181.383966,27.5625 Z" id="Shape" fill="#FFFFFF" sketch:type="MSShapeGroup"></path>
            <path d="M193.822785,23.15625 L191.50211,23.15625 C191.780591,23.34375 191.966245,23.53125 192.151899,23.71875 C192.43038,24 192.43038,24 192.43038,24.5625 L192.43038,31.78125 C192.43038,32.0625 192.244726,32.25 192.059072,32.4375 L193.544304,32.4375 C193.35865,32.34375 193.172996,32.15625 193.172996,31.78125 L193.172996,24.9375 C193.172996,25.03125 199.670886,32.71875 199.670886,32.71875 L199.670886,23.71875 C199.670886,23.4375 199.85654,23.25 200.042194,23.0625 L198.556962,23.0625 C198.742616,23.15625 198.92827,23.34375 198.92827,23.71875 L198.92827,29.0625 L193.822785,23.15625 L193.822785,23.15625 Z" id="Shape" fill="#FFFFFF" sketch:type="MSShapeGroup"></path>
            <path d="M203.012658,32.34375 L208.767932,32.34375 L209.046414,30.75 C208.582278,31.59375 208.025316,31.59375 206.818565,31.59375 C206.168776,31.59375 205.333333,31.59375 205.054852,31.5 L205.054852,27.46875 L207.097046,27.46875 C207.2827,27.46875 207.561181,27.65625 207.561181,27.84375 L207.561181,26.4375 C207.468354,26.625 207.2827,26.8125 207.097046,26.8125 L205.147679,26.8125 L205.147679,23.71875 L207.468354,23.71875 C208.025316,23.71875 208.303797,23.8125 208.489451,24.1875 L208.489451,22.96875 L203.105485,22.96875 C203.291139,23.0625 203.476793,23.25 203.476793,23.625 L203.476793,31.6875 C203.383966,32.0625 203.291139,32.25 203.012658,32.34375 L203.012658,32.34375 Z" id="Shape" fill="#FFFFFF" sketch:type="MSShapeGroup"></path>
            <path d="M218.514768,23.71875 L218.514768,29.0625 L213.50211,23.0625 L211.181435,23.0625 C211.459916,23.25 211.64557,23.4375 211.831224,23.625 C212.109705,23.90625 212.109705,23.90625 212.109705,24.46875 L212.109705,31.6875 C212.109705,31.96875 211.924051,32.15625 211.738397,32.34375 L213.223629,32.34375 C213.037975,32.25 212.852321,32.0625 212.852321,31.6875 L212.852321,24.84375 C212.852321,24.9375 219.350211,32.625 219.350211,32.625 L219.350211,23.625 C219.350211,23.34375 219.535865,23.15625 219.721519,22.96875 L218.14346,22.96875 C218.329114,23.25 218.514768,23.4375 218.514768,23.71875 L218.514768,23.71875 Z" id="Shape" fill="#FFFFFF" sketch:type="MSShapeGroup"></path>
            <path d="M64.3291139,27.65625 C64.2362869,30.46875 66.556962,32.4375 69.2489451,32.53125 C71.6624473,32.53125 74.2616034,30.9375 74.3544304,27.84375 C74.3544304,24.75 71.7552743,23.0625 69.4345992,23.0625 C66.278481,22.96875 64.4219409,25.3125 64.3291139,27.65625 L64.3291139,27.65625 Z M72.4978903,27.84375 C72.4978903,30.28125 71.1983122,31.6875 69.4345992,31.6875 C67.8565401,31.6875 66.278481,30.375 66.278481,27.46875 C66.278481,25.03125 67.6708861,23.625 69.4345992,23.625 C71.1983122,23.71875 72.4978903,25.21875 72.4978903,27.84375 L72.4978903,27.84375 Z" id="Shape" fill="#FFFFFF" sketch:type="MSShapeGroup"></path>
            <path d="M70.1772152,21.5625 C70.1772152,21.9375 70.4556962,22.21875 70.8270042,22.21875 C71.1983122,22.21875 71.4767932,21.9375 71.4767932,21.5625 C71.4767932,21.1875 71.1983122,20.90625 70.8270042,20.90625 C70.4556962,20.90625 70.1772152,21.1875 70.1772152,21.5625 L70.1772152,21.5625 Z" id="Shape" fill="#FFFFFF" sketch:type="MSShapeGroup"></path>
            <path d="M68.5991561,21.5625 C68.5991561,21.1875 68.3206751,20.90625 67.9493671,20.90625 C67.5780591,20.90625 67.2995781,21.1875 67.2995781,21.5625 C67.2995781,21.9375 67.5780591,22.21875 67.9493671,22.21875 C68.3206751,22.21875 68.5991561,22.03125 68.5991561,21.5625 L68.5991561,21.5625 Z" id="Shape" fill="#FFFFFF" sketch:type="MSShapeGroup"></path>
        </g>
    </g>
</svg>