<?xml version="1.0" encoding="UTF-8" standalone="no"?>
<svg width="24px" height="761px" viewBox="0 0 24 761" version="1.1" xmlns="http://www.w3.org/2000/svg" xmlns:xlink="http://www.w3.org/1999/xlink" xmlns:sketch="http://www.bohemiancoding.com/sketch/ns">
    <!-- Generator: Sketch 3.0.4 (8053) - http://www.bohemiancoding.com/sketch -->
    <title>sprite</title>
    <desc>Created with Sketch.</desc>
    <defs></defs>
    <g id="Page-1" stroke="none" stroke-width="1" fill="none" fill-rule="evenodd" sketch:type="MSPage">
        <g id="sprite" sketch:type="MSLayerGroup">
            <g id="Page-1" sketch:type="MSShapeGroup">
                <g id="Icons">
                    <g id="icon-alert" transform="translate(0.000000, 748.000000)" fill="#D62020">
                        <path d="M14.8895089,12.1265625 L7.97209821,0.29453125 C7.875,0.125260417 7.69419643,0 7.5,0 C7.30245536,0 7.12165179,0.125260417 7.02790179,0.29453125 L0.110491071,12.1265625 C0.0167410714,12.2958333 -0.0502232143,12.5666667 0.046875,12.7325521 C0.143973214,12.8984375 0.321428571,13 0.515625,13 L14.4810268,13 C14.6752232,13 14.8526786,12.8984375 14.9497768,12.7325521 C15.0502232,12.5666667 14.9832589,12.2924479 14.8895089,12.1265625 L14.8895089,12.1265625 Z M8.57142857,11.375 L6.42857143,11.375 L6.42857143,9.75 L8.57142857,9.75 L8.57142857,11.375 L8.57142857,11.375 Z M8.57142857,8.66666667 L6.42857143,8.66666667 L6.42857143,3.79166667 L8.57142857,3.79166667 L8.57142857,8.66666667 L8.57142857,8.66666667 Z" id="Shape"></path>
                    </g>
                    <g id="icon-video" transform="translate(0.000000, 690.000000)">
                        <g id="Page-1">
                            <g id="icon-video">
                                <path d="M23,28 L0,28 L0,0 L15,0 L17.6716614,2.67166138 L23,8 L23,28 L23,28 Z" id="Paper" fill="#7B33AA"></path>
                                <path d="M9,21 L9,12 L14,16.5 L9,21 L9,21 Z" id="Play" fill-opacity="0.6" fill="#FFFFFF"></path>
                                <path d="M15.012858,0.00384521484 L23.0132443,8.0022583 L15.012858,8.0022583 L15.012858,0.00384521484 L15.012858,0.00384521484 Z" id="Edge" fill="#49216E"></path>
                            </g>
                        </g>
                    </g>
                    <g id="icon-text-document" transform="translate(0.000000, 632.000000)">
                        <g id="Page-1">
                            <g id="icon-text-document">
                                <path d="M23,28 L0,28 L0,0 L15,0 L17.6716614,2.67166138 L23,8 L23,28 L23,28 Z" id="Paper" fill="#529FD5"></path>
                                <path d="M15.012858,0.00384521484 L23.0132443,8.0022583 L15.012858,8.0022583 L15.012858,0.00384521484 L15.012858,0.00384521484 Z" id="Edge" fill="#006D9F"></path>
                                <g id="Visual" transform="translate(3.000000, 7.000000)" fill="#FFFFFF" fill-opacity="0.6">
                                    <rect id="Rectangle-15" x="0" y="0" width="9" height="2"></rect>
                                    <rect id="Rectangle-16" x="0" y="4" width="17" height="2"></rect>
                                    <rect id="Rectangle-17" x="0" y="8" width="17" height="2"></rect>
                                    <rect id="Rectangle-18" x="0" y="12" width="17" height="2"></rect>
                                    <rect id="Rectangle-19" x="0" y="16" width="14" height="2"></rect>
                                </g>
                            </g>
                        </g>
                    </g>
                    <g id="icon-presentation" transform="translate(0.000000, 574.000000)">
                        <g id="Page-1">
                            <g id="icon-presentation">
                                <path d="M23,28 L0,28 L0,0 L15,0 L17.6716614,2.67166138 L23,8 L23,28 L23,28 Z" id="Paper" fill="#FA8F00"></path>
                                <path d="M15.012858,0.00384521484 L23.0132443,8.0022583 L15.012858,8.0022583 L15.012858,0.00384521484 L15.012858,0.00384521484 Z" id="Edge" fill="#B96509"></path>
                                <g id="Visual" transform="translate(5.000000, 11.000000)" fill="#FFFFFF">
                                    <rect id="Rectangle-2" fill-opacity="0.4" x="3" y="3" width="10" height="8"></rect>
                                    <rect id="Rectangle-1" stroke="#FA8F00" fill-opacity="0.6" x="0" y="0" width="10" height="8"></rect>
                                </g>
                            </g>
                        </g>
                    </g>
                    <g id="icon-pdf" transform="translate(0.000000, 516.000000)">
                        <g id="Page-1">
                            <g id="icon-pdf">
                                <path d="M23,28 L0,28 L0,0 L15,0 L17.6716614,2.67166138 L23,8 L23,28 L23,28 Z" id="Paper" fill="#D62020"></path>
                                <path d="M15.012858,0.00384521484 L23.0132443,8.0022583 L15.012858,8.0022583 L15.012858,0.00384521484 L15.012858,0.00384521484 Z" id="Edge" fill="#9F241F"></path>
                                <path d="M8.11046713,17.9692718 C8.68444808,16.8220777 9.33714332,15.5293398 9.85919094,14.2316214 L10.0658386,13.7195437 C9.38364808,11.0730097 8.97451475,8.9488835 9.34003856,7.57516505 C9.43847665,7.2171165 9.8452576,7 10.2802671,7 L10.5451814,7.00387379 L10.5938576,7.00387379 C11.1893719,6.99446602 11.470029,7.76682524 11.5015147,8.06695146 C11.5541719,8.56703883 11.3272576,9.41336893 11.3272576,9.41336893 C11.3272576,9.0715534 11.3404671,8.5194466 11.1289338,8.04297087 C10.8824767,7.49160194 10.6474195,7.16214563 10.436429,7.10994175 C10.330029,7.18243689 10.2265243,7.3327767 10.1908767,7.62146602 C10.1175909,8.02636893 10.0955147,8.53770874 10.0955147,8.80112621 C10.0955147,9.73212621 10.2753814,10.9610388 10.6287814,12.227767 C10.6953719,12.0316796 10.7541814,11.8431553 10.8006862,11.6666214 C10.8732481,11.3882621 11.3337719,9.54378641 11.3337719,9.54378641 C11.3337719,9.54378641 11.2177814,11.9992136 11.0556481,12.7420583 C11.0207243,12.8990388 10.9825433,13.0543592 10.9427338,13.2133689 C11.5252195,14.8731942 12.4643624,16.3546408 13.5844576,17.4208544 C14.0261624,17.8416214 14.5838576,18.1808544 15.1118767,18.4902039 C16.2647243,18.3221553 17.3261909,18.242835 18.2115909,18.2529806 C19.3866957,18.2686602 20.2489338,18.445932 20.5981719,18.7964175 C20.7691719,18.9670485 20.8386576,19.1727282 20.8601909,19.4034951 C20.8652576,19.4933301 20.8223719,19.7043592 20.8097052,19.7571165 C20.8223719,19.6931068 20.8223719,19.3778544 19.8792481,19.0710874 C19.1364386,18.829068 17.7463624,18.8366311 16.0781624,19.0175922 C18.0074767,19.979767 19.88721,20.4579029 20.4829052,20.1712427 C20.6287528,20.098932 20.8051814,19.852301 20.8051814,19.852301 C20.8051814,19.852301 20.700229,20.3385534 20.6249528,20.4601165 C20.5286862,20.5921942 20.3399528,20.7353398 20.1609909,20.7834854 C19.2202195,21.0393398 16.77121,20.4473883 14.6365147,19.2039029 C12.2512005,19.561767 9.63173379,20.2232621 7.53214332,20.9255243 C5.46874332,24.6117087 3.91743856,26.3047379 2.65547665,25.660767 L2.19151475,25.4229903 C2.00296237,25.3130485 1.97419094,25.0453883 2.01780046,24.827165 C2.16491475,24.0935437 3.06750522,22.9882233 4.88064808,21.8843786 C5.0758957,21.7641068 5.94500998,21.2955631 5.94500998,21.2955631 C5.94500998,21.2955631 5.30154332,21.9303107 5.15080998,22.0551942 C3.70355284,23.2641845 2.63539094,24.7851068 2.66217189,25.3746602 L2.66741951,25.4259417 C3.89662903,25.2475631 5.74017189,22.696767 8.11046713,17.9692718 M8.86141951,18.3614466 C8.46567665,19.1212621 8.07880046,19.8259223 7.72141951,20.4730291 C9.69760046,19.6290971 11.8243338,19.0889806 13.84901,18.7052913 C13.5768576,18.5136311 13.3126671,18.3109029 13.0642195,18.0965534 C11.9493719,17.1341942 11.0992576,15.9336893 10.4831147,14.670466 C10.0922576,15.7435049 9.62793379,16.8840583 8.86141951,18.3614466" id="Imported-Layers" fill="#FFFFFF"></path>
                            </g>
                        </g>
                    </g>
                    <g id="icon-excel" transform="translate(0.000000, 458.000000)">
                        <g id="Page-1">
                            <g id="icon-excel">
                                <path d="M23,28 L0,28 L0,0 L15,0 L17.6716614,2.67166138 L23,8 L23,28 L23,28 Z" id="Paper" fill="#64A700"></path>
                                <path d="M15.012858,0.00384521484 L23.0132443,8.0022583 L15.012858,8.0022583 L15.012858,0.00384521484 L15.012858,0.00384521484 Z" id="Edge" fill="#477700"></path>
                                <g id="Visual" transform="translate(3.000000, 12.000000)" fill-opacity="0.6" fill="#FFFFFF">
                                    <path d="M0,0 L0,2 L5,2 L5,0 L0,0 L0,0 Z M6,0 L6,2 L11,2 L11,0 L6,0 L6,0 Z M12,0 L12,2 L17,2 L17,0 L12,0 L12,0 Z M0,3 L0,5 L5,5 L5,3 L0,3 L0,3 Z M6,3 L6,5 L11,5 L11,3 L6,3 L6,3 Z M12,3 L12,5 L17,5 L17,3 L12,3 L12,3 Z M0,6 L0,8 L5,8 L5,6 L0,6 L0,6 Z M6,6 L6,8 L11,8 L11,6 L6,6 L6,6 Z M12,6 L12,8 L17,8 L17,6 L12,6 L12,6 Z M0,9 L0,11 L5,11 L5,9 L0,9 L0,9 Z M6,9 L6,11 L11,11 L11,9 L6,9 L6,9 Z M12,9 L12,11 L17,11 L17,9 L12,9 L12,9 Z" id="Rectangle-3"></path>
                                </g>
                            </g>
                        </g>
                    </g>
                    <g id="icon-star" transform="translate(0.000000, 228.000000)" fill="#CCCCCC">
                        <path d="M16,6.22367347 L10.315625,5.68163265 L8,0 L5.684375,5.68163265 L0,6.22367347 L4.25,10.1942857 L3,16 L8,13.2244898 L13,16 L11.75,10.1942857 L16,6.22367347 L16,6.22367347 Z" id="Shape"></path>
                    </g>
                    <g id="icon-search" transform="translate(0.000000, 174.000000)" fill="#FFFFFF">
                        <path d="M17.53125,14.625 C18.46875,13.15 19.01875,11.4 19.01875,9.51875 C19.01875,4.2625 14.7625,0 9.5125,0 C4.25625,0 0,4.2625 0,9.51875 C0,14.775 4.25625,19.0375 9.50625,19.0375 C11.4125,19.0375 13.1875,18.475 14.675,17.5125 L15.10625,17.2125 L21.89375,24 L24,21.85625 L17.21875,15.06875 L17.53125,14.625 L17.53125,14.625 Z M14.8375,4.2 C16.25625,5.61875 17.0375,7.50625 17.0375,9.5125 C17.0375,11.51875 16.25625,13.40625 14.8375,14.825 C13.41875,16.24375 11.53125,17.025 9.525,17.025 C7.51875,17.025 5.63125,16.24375 4.2125,14.825 C2.79375,13.40625 2.0125,11.51875 2.0125,9.5125 C2.0125,7.50625 2.79375,5.61875 4.2125,4.2 C5.63125,2.78125 7.51875,2 9.525,2 C11.53125,2 13.41875,2.78125 14.8375,4.2 L14.8375,4.2 L14.8375,4.2 Z" id="Shape"></path>
                    </g>
                    <g id="icon-remove" transform="translate(0.000000, 130.000000)" fill="#CCCCCC">
                        <path d="M7,0 C3.134375,0 0,3.134375 0,7 C0,10.865625 3.134375,14 7,14 C10.865625,14 14,10.865625 14,7 C14,3.134375 10.865625,0 7,0 L7,0 L7,0 Z M10.384375,9.359375 C10.43125,9.40625 10.45625,9.46875 10.45625,9.534375 C10.45625,9.6 10.43125,9.665625 10.384375,9.709375 L9.709375,10.3875 C9.659375,10.4375 9.596875,10.459375 9.534375,10.459375 C9.471875,10.459375 9.40625,10.434375 9.359375,10.3875 L7,8.025 L4.64375,10.390625 C4.596875,10.440625 4.53125,10.4625 4.46875,10.4625 C4.40625,10.4625 4.340625,10.4375 4.29375,10.390625 L3.61875,9.7125 C3.571875,9.665625 3.546875,9.603125 3.546875,9.5375 C3.546875,9.471875 3.571875,9.40625 3.61875,9.3625 L5.984375,6.9875 L3.6125,4.64375 C3.515625,4.546875 3.515625,4.3875 3.6125,4.290625 L4.2875,3.6125 C4.334375,3.565625 4.396875,3.540625 4.4625,3.540625 C4.528125,3.540625 4.590625,3.565625 4.6375,3.6125 L7.003125,5.946875 L9.36875,3.6125 C9.415625,3.565625 9.478125,3.540625 9.54375,3.540625 C9.609375,3.540625 9.671875,3.565625 9.71875,3.6125 L10.39375,4.290625 C10.490625,4.3875 10.490625,4.546875 10.39375,4.64375 L8.021875,6.9875 L10.384375,9.359375 L10.384375,9.359375 Z" id="Shape"></path>
                    </g>
                    <g id="icon-chevron-right" transform="translate(0.000000, 83.000000)" fill="#444444">
                        <path d="M6.65234375,8.5 L6.65234375,8.5 L0.12109375,1.89352679 C-0.04296875,1.73035714 -0.0390625,1.4609375 0.12890625,1.29397321 L1.296875,0.1328125 C1.46484375,-0.0341517857 1.73828125,-0.0379464286 1.90234375,0.125223214 L9.87890625,8.19642857 C9.96484375,8.27991071 10.0039062,8.39375 9.99609375,8.50379464 C10,8.61763393 9.9609375,8.72767857 9.87890625,8.81116071 L1.90234375,16.8785714 C1.73828125,17.0417411 1.46484375,17.0379464 1.296875,16.8709821 L0.12890625,15.7098214 C-0.0390625,15.5428571 -0.04296875,15.2734375 0.12109375,15.1102679 L6.65234375,8.5 L6.65234375,8.5 Z" id="Shape"></path>
                    </g>
                    <g id="icon-chevron-left" transform="translate(0.000000, 36.000000)" fill="#444444">
                        <path d="M3.34765625,8.5 L3.34765625,8.5 L9.87890625,1.89352679 C10.0429687,1.73035714 10.0390625,1.4609375 9.87109375,1.29397321 L8.703125,0.1328125 C8.53515625,-0.0341517857 8.26171875,-0.0379464286 8.09765625,0.125223214 L0.12109375,8.19263393 C0.03515625,8.27611607 -0.00390625,8.38995536 0.00390625,8.5 C2.35488712e-16,8.61383929 0.0390625,8.72388393 0.12109375,8.80736607 L8.09765625,16.8785714 C8.26171875,17.0417411 8.53515625,17.0379464 8.703125,16.8709821 L9.87109375,15.7098214 C10.0390625,15.5428571 10.0429687,15.2734375 9.87890625,15.1102679 L3.34765625,8.5 L3.34765625,8.5 Z" id="Shape"></path>
                    </g>
                    <g id="icon-arrow-down" fill="#535353">
                        <g id="Page-1">
                            <g id="Desktop-HD">
                                <g id="Filter">
                                    <g id="Dropdown-1">
                                        <path d="M0,0 L10,0 L5,6 L0,0 L0,0 Z" id="Arrow"></path>
                                    </g>
                                </g>
                            </g>
                        </g>
                    </g>
                </g>
            </g>
        </g>
    </g>
</svg>