<svg xmlns="http://www.w3.org/2000/svg" xmlns:xlink="http://www.w3.org/1999/xlink" xmlns:sketch="http://www.bohemiancoding.com/sketch/ns" width="220" height="45" viewBox="0 0 220 45" version="1.1">
  <title>
    Group
  </title>
  <desc>
    Created with Sketch.
  </desc>
  <g id="Page-1" stroke="none" stroke-width="1" fill="none" fill-rule="evenodd" sketch:type="MSPage">
    <g id="Group" sketch:type="MSLayerGroup">
      <path d="M130.33 27.66C130.33 26.06 129.4 23.81 126.62 23.81L125.41 23.81 125.41 31.69 126.52 31.69C129.49 31.69 130.33 29.63 130.33 27.66L130.33 27.66Z" id="Shape" sketch:type="MSShapeGroup"/>
      <path d="M148.24 25.5C148.24 24.84 147.87 23.81 146.57 23.81L145.83 23.81 145.83 27.38 146.48 27.38C147.32 27.38 148.24 26.91 148.24 25.5L148.24 25.5Z" id="Shape" sketch:type="MSShapeGroup"/>
      <path d="M64.61 11.81C64.61 11.81 63.68 14.06 63.31 15.09L66 15.09C65.35 13.69 64.61 11.81 64.61 11.81L64.61 11.81Z" id="Shape" sketch:type="MSShapeGroup"/>
      <path d="M98.12 15.19L100.81 15.19C100.16 13.69 99.42 11.91 99.42 11.91 99.42 11.91 98.49 14.16 98.12 15.19L98.12 15.19Z" id="Shape" sketch:type="MSShapeGroup"/>
      <path d="M87.16 25.78C87.16 25.78 86.24 28.13 85.77 29.16L88.46 29.16C87.81 27.56 87.16 25.78 87.16 25.78L87.16 25.78Z" id="Shape" sketch:type="MSShapeGroup"/>
      <path d="M66.28 27.56C66.28 30.47 67.86 31.78 69.43 31.78 71.2 31.78 72.5 30.38 72.5 27.94 72.5 25.31 71.2 23.72 69.43 23.72 67.58 23.72 66.28 25.13 66.28 27.56L66.28 27.56Z" id="Shape" sketch:type="MSShapeGroup"/>
      <path d="M187.6 27.84C187.6 25.22 186.3 23.63 184.54 23.63 182.78 23.63 181.38 25.03 181.38 27.47 181.38 30.38 182.96 31.69 184.54 31.69 186.3 31.69 187.6 30.28 187.6 27.84L187.6 27.84Z" id="Shape" sketch:type="MSShapeGroup"/>
      <path d="M103.69 29.06L106.38 29.06C105.73 27.56 104.99 25.69 104.99 25.69 104.99 25.69 104.06 28.13 103.69 29.06L103.69 29.06Z" id="Shape" sketch:type="MSShapeGroup"/>
      <path d="M91.16 11.53C91.16 10.88 90.78 9.84 89.49 9.84L88.74 9.84 88.74 13.41 89.3 13.41C90.14 13.41 91.16 12.94 91.16 11.53L91.16 11.53Z" id="Shape" sketch:type="MSShapeGroup"/>
      <path d="M22.93 0L0 0 11.14 19.31C11.05 18.47 10.95 17.53 10.95 16.59 10.95 8.81 15.97 2.25 22.93 0L22.93 0Z" id="Shape" fill="#FFFFFF" sketch:type="MSShapeGroup"/>
      <path d="M34.81 29.72C32.3 31.59 29.24 32.63 25.99 32.63 22.74 32.63 19.59 31.5 17.17 29.72L25.99 45 34.81 29.72 34.81 29.72Z" id="Shape" fill="#FFFFFF" sketch:type="MSShapeGroup"/>
      <path d="M17.08 13.41C17.08 15.38 17.45 17.16 18.19 18.84 18.29 19.03 18.38 19.31 18.57 19.5 19.96 22.03 22.56 23.81 25.62 23.91L25.62 23.91 25.99 23.91 26.27 23.91C29.61 23.72 32.21 21 32.21 17.53 32.21 14.06 29.43 11.16 25.9 11.16 25.99 11.06 26.08 10.97 26.27 10.88 27.85 9.56 29.8 8.72 32.03 8.72 36.95 8.72 40.94 12.75 40.94 17.72 40.94 18.19 40.94 18.75 40.84 19.22L51.98 0 31.47 0C19.86 0 17.08 9.19 17.08 13.41L17.08 13.41Z" id="Shape" fill="#FFFFFF" sketch:type="MSShapeGroup"/>
      <path d="M55.14 9.19L52.17 9.19C52.54 9.38 52.73 9.56 52.91 9.84 53.19 10.31 56.62 18.66 56.62 18.66 56.62 18.66 59.87 10.41 60.06 9.84 60.15 9.56 60.24 9.47 60.52 9.19L58.85 9.19C59.22 9.28 59.22 9.47 59.13 9.84 59.13 9.94 57 15.56 57 15.56 57 15.56 54.77 10.03 54.77 9.94 54.77 9.66 54.77 9.38 55.14 9.19L55.14 9.19Z" id="Shape" fill="#FFFFFF" sketch:type="MSShapeGroup"/>
      <path d="M73.24 17.81C71.85 17.81 71.01 16.5 70.83 15.56L70.92 17.81C71.38 18 72.31 18.47 73.52 18.47 75.19 18.47 76.58 17.34 76.58 15.66 76.58 13.78 75.28 13.31 74.08 12.75 72.78 12.19 72.22 11.91 72.22 11.06 72.22 10.5 72.59 9.75 73.61 9.75 74.91 9.75 75.65 10.88 75.84 11.53L75.75 9.56C75.1 9.19 74.17 9.09 73.7 9.09 72.5 9.09 70.83 9.84 70.83 11.63 70.83 12.66 71.38 13.41 72.59 14.06 73.8 14.72 75 14.91 75 16.22 74.91 16.88 74.54 17.81 73.24 17.81L73.24 17.81Z" id="Shape" fill="#FFFFFF" sketch:type="MSShapeGroup"/>
      <path d="M77.6 10.5C77.7 10.31 77.97 9.94 78.25 9.94 78.25 9.94 79.37 9.84 80.39 9.84L80.39 17.81C80.39 18.09 80.3 18.28 80.02 18.38L82.43 18.38C82.24 18.28 82.06 18.09 82.06 17.81L82.06 9.94C82.99 9.94 84.29 10.03 84.29 10.03 84.57 10.03 84.75 10.31 84.94 10.59L84.94 9.19 77.6 9.19 77.6 10.5 77.6 10.5Z" id="Shape" fill="#FFFFFF" sketch:type="MSShapeGroup"/>
      <path d="M86.61 18.38L89.02 18.38C88.84 18.28 88.65 18.09 88.65 17.81L88.65 14.06 89.21 14.06C89.76 14.06 90.04 14.63 90.41 15.19 90.88 15.94 91.43 16.97 92.08 17.81 92.36 18.09 92.73 18.47 93.29 18.47L95.05 18.47C95.05 18.47 94.5 18.28 94.22 17.91 93.76 17.34 92.18 14.81 92.18 14.81 91.99 14.53 91.62 13.88 90.69 13.78 91.62 13.69 92.92 13.03 92.92 11.53 92.92 10.59 92.27 9.28 89.49 9.28L86.61 9.28C86.79 9.38 86.98 9.56 86.98 9.84L86.98 17.81C86.98 18.09 86.79 18.28 86.61 18.38L86.61 18.38ZM88.65 9.94L89.39 9.94C90.69 9.94 91.06 10.97 91.06 11.63 91.06 13.03 90.14 13.5 89.21 13.5L88.65 13.5 88.65 9.94 88.65 9.94Z" id="Shape" fill="#FFFFFF" sketch:type="MSShapeGroup"/>
      <path d="M103.78 17.72C103.5 17.25 99.97 8.91 99.97 8.91 99.97 8.91 96.45 17.16 96.17 17.72 96.08 18 95.89 18.09 95.52 18.38L97.38 18.38C97 18.19 96.91 18 97.1 17.72 97.1 17.53 97.47 16.78 97.84 15.84L101.09 15.84C101.46 16.78 101.83 17.63 101.83 17.72 101.92 18 101.83 18.19 101.55 18.38L104.43 18.38C103.97 18.19 103.87 18 103.78 17.72L103.78 17.72ZM98.12 15.19C98.58 14.16 99.42 11.91 99.42 11.91 99.42 11.91 100.16 13.69 100.81 15.19L98.12 15.19 98.12 15.19Z" id="Shape" fill="#FFFFFF" sketch:type="MSShapeGroup"/>
      <path d="M67.21 7.69C67.21 7.31 66.93 7.03 66.56 7.03 66.19 7.03 65.91 7.31 65.91 7.69 65.91 8.06 66.19 8.34 66.56 8.34 66.93 8.34 67.21 8.06 67.21 7.69L67.21 7.69Z" id="Shape" fill="#FFFFFF" sketch:type="MSShapeGroup"/>
      <path d="M60.71 18.38L62.57 18.38C62.19 18.19 62.1 18 62.29 17.72 62.29 17.53 62.66 16.78 63.03 15.84L66.28 15.84C66.65 16.78 67.02 17.63 67.02 17.72 67.11 18 67.02 18.19 66.74 18.38L69.62 18.38C69.16 18.19 69.06 18 68.97 17.72 68.69 17.25 65.16 8.91 65.16 8.91 65.16 8.91 61.64 17.16 61.36 17.72 61.27 18 61.08 18.09 60.71 18.38L60.71 18.38ZM64.61 11.81C64.61 11.81 65.35 13.59 66 15.09L63.31 15.09C63.68 14.16 64.61 11.81 64.61 11.81L64.61 11.81Z" id="Shape" fill="#FFFFFF" sketch:type="MSShapeGroup"/>
      <path d="M64.24 7.69C64.24 7.31 63.96 7.03 63.59 7.03 63.22 7.03 62.94 7.31 62.94 7.69 62.94 8.06 63.22 8.34 63.59 8.34 63.96 8.34 64.24 8.06 64.24 7.69L64.24 7.69Z" id="Shape" fill="#FFFFFF" sketch:type="MSShapeGroup"/>
      <path d="M52.91 27.75C52.91 30.66 55.32 32.44 57.92 32.44 59.04 32.44 60.89 32.06 62.01 31.41 61.92 31.41 61.82 31.13 61.82 30.84L61.82 28.88C61.82 28.59 62.01 28.41 62.19 28.22L59.78 28.22C59.97 28.31 60.15 28.5 60.15 28.88L60.15 31.22C59.5 31.59 58.76 31.69 58.48 31.69 55.7 31.69 54.77 29.34 54.77 27.56 54.77 25.41 56.07 23.72 58.39 23.72 59.04 23.72 60.71 24 61.45 25.88L61.36 23.72C60.34 23.25 59.32 22.97 58.2 22.97 54.68 22.97 52.91 25.41 52.91 27.75L52.91 27.75Z" id="Shape" fill="#FFFFFF" sketch:type="MSShapeGroup"/>
      <path d="M75.47 24.47C75.56 24.28 75.84 23.91 76.12 23.91 76.12 23.91 77.23 23.81 78.25 23.81L78.25 31.78C78.25 32.06 78.16 32.25 77.88 32.44L80.3 32.44C80.11 32.34 79.92 32.16 79.92 31.78L79.92 23.81C80.95 23.81 82.15 23.91 82.15 23.91 82.43 23.91 82.71 24.19 82.8 24.47L82.8 23.16 75.38 23.16 75.38 24.47 75.47 24.47Z" id="Shape" fill="#FFFFFF" sketch:type="MSShapeGroup"/>
      <path d="M83.17 32.34L85.03 32.34C84.66 32.16 84.57 31.97 84.75 31.69 84.75 31.5 85.12 30.75 85.49 29.81L88.84 29.81C89.21 30.75 89.58 31.59 89.58 31.69 89.67 31.97 89.58 32.16 89.3 32.34L92.18 32.34C91.71 32.16 91.62 31.97 91.53 31.69 91.25 31.13 87.72 22.78 87.72 22.78 87.72 22.78 84.19 31.13 83.92 31.69 83.73 31.97 83.54 32.16 83.17 32.34L83.17 32.34ZM87.16 25.78C87.16 25.78 87.91 27.56 88.56 29.16L85.86 29.16C86.24 28.13 87.16 25.78 87.16 25.78L87.16 25.78Z" id="Shape" fill="#FFFFFF" sketch:type="MSShapeGroup"/>
      <path d="M94.41 23.72L94.41 31.78C94.41 32.06 94.22 32.25 94.03 32.44L99.7 32.44 99.97 30.84C99.51 31.59 99.05 31.69 97.56 31.69 96.91 31.69 96.35 31.59 96.08 31.59L96.08 23.72C96.08 23.44 96.17 23.25 96.45 23.06L94.03 23.06C94.31 23.25 94.41 23.44 94.41 23.72L94.41 23.72Z" id="Shape" fill="#FFFFFF" sketch:type="MSShapeGroup"/>
      <path d="M107.12 32.34L110 32.34C109.54 32.16 109.44 31.97 109.35 31.69 109.07 31.13 105.54 22.78 105.54 22.78 105.54 22.78 102.02 31.13 101.74 31.69 101.65 31.97 101.46 32.06 101.09 32.34L102.95 32.34C102.57 32.16 102.48 31.97 102.67 31.69 102.67 31.5 103.04 30.75 103.41 29.81L106.75 29.81C107.12 30.75 107.49 31.59 107.49 31.69 107.59 31.97 107.49 32.16 107.12 32.34L107.12 32.34ZM103.69 29.06C104.15 28.03 105.08 25.69 105.08 25.69 105.08 25.69 105.82 27.47 106.47 29.06L103.69 29.06 103.69 29.06Z" id="Shape" fill="#FFFFFF" sketch:type="MSShapeGroup"/>
      <path d="M113.71 23.16L111.39 23.16C111.67 23.34 111.86 23.53 112.04 23.72 112.32 24 112.32 24 112.32 24.56L112.32 31.78C112.32 32.06 112.14 32.25 111.95 32.44L113.43 32.44C113.25 32.34 113.06 32.16 113.06 31.78L113.06 24.94C113.06 25.03 119.56 32.72 119.56 32.72L119.56 23.72C119.56 23.44 119.75 23.25 119.93 23.06L118.45 23.06C118.63 23.16 118.82 23.34 118.82 23.72L118.82 29.06 113.71 23.16 113.71 23.16Z" id="Shape" fill="#FFFFFF" sketch:type="MSShapeGroup"/>
      <path d="M123.27 32.34L126.71 32.34C130.33 32.34 132.19 29.91 132.19 27.56 132.19 26.25 131.26 23.06 126.89 23.06L123.27 23.06C123.46 23.16 123.65 23.34 123.65 23.72L123.65 31.78C123.65 32.06 123.46 32.25 123.27 32.34L123.27 32.34ZM125.32 23.81L126.52 23.81C129.31 23.81 130.24 25.97 130.24 27.66 130.24 29.63 129.4 31.69 126.34 31.69L125.32 31.69 125.32 23.81 125.32 23.81Z" id="Shape" fill="#FFFFFF" sketch:type="MSShapeGroup"/>
      <path d="M137.38 31.78C135.99 31.78 135.16 30.47 134.88 29.53L134.97 31.88C135.43 32.06 136.36 32.53 137.57 32.53 139.24 32.53 140.73 31.41 140.73 29.72 140.73 27.84 139.43 27.38 138.13 26.81 136.83 26.25 136.27 25.88 136.27 25.13 136.27 24.56 136.64 23.81 137.66 23.81 138.96 23.81 139.7 24.94 139.89 25.59L139.8 23.63C139.15 23.25 138.22 23.16 137.76 23.16 136.55 23.16 134.78 23.91 134.78 25.78 134.78 26.81 135.34 27.56 136.55 28.22 137.76 28.88 138.96 29.06 138.96 30.38 139.05 30.84 138.68 31.78 137.38 31.78L137.38 31.78Z" id="Shape" fill="#FFFFFF" sketch:type="MSShapeGroup"/>
      <path d="M143.7 32.34L146.11 32.34C145.92 32.25 145.74 32.06 145.74 31.69L145.74 27.94 146.3 27.94C146.85 27.94 147.22 28.5 147.5 29.06 147.97 29.81 148.62 30.84 149.17 31.69 149.45 31.97 149.82 32.34 150.38 32.34L152.14 32.34C152.14 32.34 151.49 32.16 151.31 31.78 150.84 31.22 149.27 28.69 149.27 28.69 149.08 28.41 148.62 27.75 147.78 27.66 148.71 27.56 150.1 26.81 150.1 25.41 150.1 24.47 149.45 23.16 146.67 23.16L143.79 23.16C143.97 23.25 144.16 23.44 144.16 23.81L144.16 31.88C144.07 32.06 143.97 32.25 143.7 32.34L143.7 32.34ZM145.74 23.81L146.48 23.81C147.78 23.81 148.15 24.94 148.15 25.5 148.15 26.91 147.22 27.38 146.3 27.38L145.65 27.38 145.65 23.81 145.74 23.81Z" id="Shape" fill="#FFFFFF" sketch:type="MSShapeGroup"/>
      <path d="M154 32.34L159.76 32.34 160.03 30.75C159.57 31.59 159.01 31.59 157.81 31.59 157.16 31.59 156.32 31.59 156.04 31.5L156.04 27.47 158.08 27.47C158.27 27.47 158.55 27.66 158.55 27.84L158.55 26.44C158.46 26.63 158.27 26.81 158.08 26.81L156.04 26.81 156.04 23.72 158.36 23.72C158.92 23.72 159.2 23.81 159.38 24.19L159.38 22.97 154 22.97C154.19 23.06 154.37 23.25 154.37 23.63L154.37 31.69C154.37 32.06 154.19 32.25 154 32.34L154 32.34Z" id="Shape" fill="#FFFFFF" sketch:type="MSShapeGroup"/>
      <path d="M167.27 23.72C167.92 23.72 169.59 24 170.34 25.88L170.24 23.72C169.22 23.25 168.2 22.97 167.09 22.97 163.65 22.97 161.89 25.41 161.89 27.75 161.89 30.66 164.3 32.44 166.9 32.44 168.02 32.44 169.87 32.06 170.99 31.41 170.89 31.41 170.8 31.13 170.8 30.84L170.8 28.88C170.8 28.59 170.99 28.41 171.17 28.22L168.76 28.22C168.95 28.31 169.13 28.5 169.13 28.88L169.13 31.22C168.48 31.59 167.74 31.69 167.46 31.69 164.68 31.69 163.75 29.34 163.75 27.56 163.75 25.41 165.05 23.72 167.27 23.72L167.27 23.72Z" id="Shape" fill="#FFFFFF" sketch:type="MSShapeGroup"/>
      <path d="M174.24 32.34L176.65 32.34C176.46 32.25 176.28 32.06 176.28 31.69L176.28 23.63C176.28 23.34 176.37 23.16 176.65 22.97L174.24 22.97C174.42 23.06 174.61 23.25 174.61 23.63L174.61 31.69C174.61 32.06 174.42 32.25 174.24 32.34L174.24 32.34Z" id="Shape" fill="#FFFFFF" sketch:type="MSShapeGroup"/>
      <path d="M189.46 27.75C189.46 24.66 186.86 22.97 184.54 22.97 181.29 22.97 179.43 25.31 179.43 27.66 179.34 30.47 181.66 32.44 184.35 32.53 186.86 32.53 189.46 30.94 189.46 27.75L189.46 27.75ZM181.38 27.56C181.38 25.13 182.78 23.72 184.54 23.72 186.3 23.72 187.7 25.31 187.6 27.94 187.6 30.38 186.3 31.78 184.54 31.78 182.96 31.69 181.38 30.38 181.38 27.56L181.38 27.56Z" id="Shape" fill="#FFFFFF" sketch:type="MSShapeGroup"/>
      <path d="M193.82 23.16L191.5 23.16C191.78 23.34 191.97 23.53 192.15 23.72 192.43 24 192.43 24 192.43 24.56L192.43 31.78C192.43 32.06 192.24 32.25 192.06 32.44L193.54 32.44C193.36 32.34 193.17 32.16 193.17 31.78L193.17 24.94C193.17 25.03 199.67 32.72 199.67 32.72L199.67 23.72C199.67 23.44 199.86 23.25 200.04 23.06L198.56 23.06C198.74 23.16 198.93 23.34 198.93 23.72L198.93 29.06 193.82 23.16 193.82 23.16Z" id="Shape" fill="#FFFFFF" sketch:type="MSShapeGroup"/>
      <path d="M203.01 32.34L208.77 32.34 209.05 30.75C208.58 31.59 208.03 31.59 206.82 31.59 206.17 31.59 205.33 31.59 205.05 31.5L205.05 27.47 207.1 27.47C207.28 27.47 207.56 27.66 207.56 27.84L207.56 26.44C207.47 26.63 207.28 26.81 207.1 26.81L205.15 26.81 205.15 23.72 207.47 23.72C208.03 23.72 208.3 23.81 208.49 24.19L208.49 22.97 203.11 22.97C203.29 23.06 203.48 23.25 203.48 23.63L203.48 31.69C203.38 32.06 203.29 32.25 203.01 32.34L203.01 32.34Z" id="Shape" fill="#FFFFFF" sketch:type="MSShapeGroup"/>
      <path d="M218.51 23.72L218.51 29.06 213.5 23.06 211.18 23.06C211.46 23.25 211.65 23.44 211.83 23.63 212.11 23.91 212.11 23.91 212.11 24.47L212.11 31.69C212.11 31.97 211.92 32.16 211.74 32.34L213.22 32.34C213.04 32.25 212.85 32.06 212.85 31.69L212.85 24.84C212.85 24.94 219.35 32.63 219.35 32.63L219.35 23.63C219.35 23.34 219.54 23.16 219.72 22.97L218.14 22.97C218.33 23.25 218.51 23.44 218.51 23.72L218.51 23.72Z" id="Shape" fill="#FFFFFF" sketch:type="MSShapeGroup"/>
      <path d="M64.33 27.66C64.24 30.47 66.56 32.44 69.25 32.53 71.66 32.53 74.26 30.94 74.35 27.84 74.35 24.75 71.76 23.06 69.43 23.06 66.28 22.97 64.42 25.31 64.33 27.66L64.33 27.66ZM72.5 27.84C72.5 30.28 71.2 31.69 69.43 31.69 67.86 31.69 66.28 30.38 66.28 27.47 66.28 25.03 67.67 23.63 69.43 23.63 71.2 23.72 72.5 25.22 72.5 27.84L72.5 27.84Z" id="Shape" fill="#FFFFFF" sketch:type="MSShapeGroup"/>
      <path d="M70.18 21.56C70.18 21.94 70.46 22.22 70.83 22.22 71.2 22.22 71.48 21.94 71.48 21.56 71.48 21.19 71.2 20.91 70.83 20.91 70.46 20.91 70.18 21.19 70.18 21.56L70.18 21.56Z" id="Shape" fill="#FFFFFF" sketch:type="MSShapeGroup"/>
      <path d="M68.6 21.56C68.6 21.19 68.32 20.91 67.95 20.91 67.58 20.91 67.3 21.19 67.3 21.56 67.3 21.94 67.58 22.22 67.95 22.22 68.32 22.22 68.6 22.03 68.6 21.56L68.6 21.56Z" id="Shape" fill="#FFFFFF" sketch:type="MSShapeGroup"/>
    </g>
  </g>
</svg>
